<?xml version="1.0" encoding="UTF-8" standalone="no"?>
<!-- Created with Inkscape (http://www.inkscape.org/) -->

<svg
   width="24"
   height="24"
   viewBox="0 0 24.000001 24.000001"
   version="1.1"
   id="svg1"
   inkscape:export-filename="Ippon.svg"
   inkscape:export-xdpi="96"
   inkscape:export-ydpi="96"
   xmlns:inkscape="http://www.inkscape.org/namespaces/inkscape"
   xmlns:sodipodi="http://sodipodi.sourceforge.net/DTD/sodipodi-0.dtd"
   xmlns="http://www.w3.org/2000/svg"
   xmlns:svg="http://www.w3.org/2000/svg">
  <sodipodi:namedview
     id="namedview1"
     pagecolor="#ffffff"
     bordercolor="#000000"
     borderopacity="0.25"
     inkscape:showpageshadow="2"
     inkscape:pageopacity="0.0"
     inkscape:pagecheckerboard="0"
     inkscape:deskcolor="#d1d1d1"
     inkscape:document-units="mm" />
  <defs
     id="defs1" />
  <g
     inkscape:label="Camada 1"
     inkscape:groupmode="layer"
     id="layer1">
    <g
       id="g1"
       transform="matrix(1.2250791,0,0,1.2250791,-1.987155,-2.7009499)"
       style="stroke:#000000">
      <path
         style="fill:none;stroke:#000000;stroke-width:0.863078;stroke-linecap:round;stroke-miterlimit:3.6;stroke-dasharray:none"
         id="path1"
         sodipodi:type="arc"
         sodipodi:cx="12.000001"
         sodipodi:cy="-10.026143"
         sodipodi:rx="7.1797223"
         sodipodi:ry="7.1797223"
         sodipodi:start="0"
         sodipodi:end="3.1415927"
         sodipodi:arc-type="slice"
         d="m 19.179723,-10.026143 a 7.1797223,7.1797223 0 0 1 -3.589861,6.2178219 7.1797223,7.1797223 0 0 1 -7.1797224,-2e-7 7.1797223,7.1797223 0 0 1 -3.589861,-6.2178217 h 7.1797224 z"
         transform="rotate(90)" />
      <path
         style="fill:none;stroke:#000000;stroke-width:0.863078;stroke-linecap:round;stroke-miterlimit:3.6;stroke-dasharray:none"
         id="path1-9"
         sodipodi:type="arc"
         sodipodi:cx="12.000001"
         sodipodi:cy="12.808555"
         sodipodi:rx="7.1797223"
         sodipodi:ry="7.1797223"
         sodipodi:start="0"
         sodipodi:end="3.1415927"
         sodipodi:arc-type="slice"
         d="m 19.179723,12.808555 a 7.1797223,7.1797223 0 0 1 -3.589861,6.217822 7.1797223,7.1797223 0 0 1 -7.1797224,-1e-6 7.1797223,7.1797223 0 0 1 -3.589861,-6.217821 h 7.1797224 z"
         transform="matrix(0,1,1,0,0,0)" />
    </g>
  </g>
</svg>
