<?xml version="1.0" encoding="UTF-8" standalone="no"?>
<!-- Created with Inkscape (http://www.inkscape.org/) -->

<svg
   width="24"
   height="24"
   viewBox="0 0 24.000001 24.000001"
   version="1.1"
   id="svg1"
   inkscape:export-filename="circulo-preto-detalhes-redondos.svg"
   inkscape:export-xdpi="96"
   inkscape:export-ydpi="96"
   sodipodi:docname="circulo-rosa-detalhes-redondos.svg"
   inkscape:version="1.3 (0e150ed6c4, 2023-07-21)"
   xmlns:inkscape="http://www.inkscape.org/namespaces/inkscape"
   xmlns:sodipodi="http://sodipodi.sourceforge.net/DTD/sodipodi-0.dtd"
   xmlns="http://www.w3.org/2000/svg"
   xmlns:svg="http://www.w3.org/2000/svg">
  <sodipodi:namedview
     id="namedview1"
     pagecolor="#ffffff"
     bordercolor="#000000"
     borderopacity="0.25"
     inkscape:showpageshadow="2"
     inkscape:pageopacity="0.0"
     inkscape:pagecheckerboard="0"
     inkscape:deskcolor="#d1d1d1"
     inkscape:document-units="mm"
     inkscape:zoom="12.241786"
     inkscape:cx="13.069988"
     inkscape:cy="23.689354"
     inkscape:window-width="1278"
     inkscape:window-height="1000"
     inkscape:window-x="1273"
     inkscape:window-y="0"
     inkscape:window-maximized="0"
     inkscape:current-layer="layer1" />
  <defs
     id="defs1" />
  <g
     inkscape:label="Camada 1"
     inkscape:groupmode="layer"
     id="layer1">
    <path
       style="color:#000000;fill:#e40788;stroke:#e40788;stroke-width:0.782769;stroke-linecap:round;stroke-miterlimit:3.6;stroke-dasharray:none;fill-opacity:1;stroke-opacity:1"
       d="m 12,0.48997346 c -3.1745776,0 -6.0520842,1.29021784 -8.1359464,3.37408014 C 1.7801913,5.9479158 0.48997346,8.8254224 0.48997346,12 c 0,3.174578 1.29021784,6.052084 3.37408014,8.135947 2.0838622,2.083862 4.9613688,3.37408 8.1359464,3.37408 3.174578,0 6.052084,-1.290218 8.135947,-3.37408 2.083862,-2.083863 3.37408,-4.961369 3.37408,-8.135947 0,-3.1745776 -1.290218,-6.0520842 -3.37408,-8.1359464 C 18.052084,1.7801913 15.174578,0.48997346 12,0.48997346 Z m 0,1.30557014 c 2.821889,0 5.373003,1.1401695 7.218645,2.9858113 1.845642,1.8456417 2.985812,4.3967559 2.985812,7.2186451 0,2.821889 -1.14017,5.373003 -2.985812,7.218645 -1.845642,1.845642 -4.396756,2.985812 -7.218645,2.985812 -2.8218892,0 -5.3730034,-1.14017 -7.2186451,-2.985812 C 2.9357131,17.373003 1.7955436,14.821889 1.7955436,12 c 0,-2.8218892 1.1401695,-5.3730034 2.9858113,-7.2186451 C 6.6269966,2.9357131 9.1781108,1.7955436 12,1.7955436 Z"
       id="path1-4"
       sodipodi:nodetypes="ssssssssssssssssss" />
    <circle
       style="fill:#ffffff;stroke:#ffffff;stroke-width:0.313107;stroke-linecap:round;stroke-miterlimit:3.6;stroke-dasharray:none"
       id="circle4-6-0"
       cx="12.000001"
       cy="22.849739"
       r="0.36409611" />
    <circle
       style="fill:#ffffff;stroke:#ffffff;stroke-width:0.313107;stroke-linecap:round;stroke-miterlimit:3.6;stroke-dasharray:none"
       id="circle4-6-8-9"
       cx="1.1381692"
       cy="12.000001"
       r="0.36409611" />
    <circle
       style="fill:#ffffff;stroke:#ffffff;stroke-width:0.313107;stroke-linecap:round;stroke-miterlimit:3.6;stroke-dasharray:none"
       id="circle4-4"
       cx="12.000001"
       cy="1.1352553"
       r="0.36409611" />
    <circle
       style="fill:#ffffff;stroke:#ffffff;stroke-width:0.313107;stroke-linecap:round;stroke-miterlimit:3.6;stroke-dasharray:none"
       id="circle4-6-5-2"
       cx="22.856718"
       cy="12.000001"
       r="0.36409611" />
    <circle
       style="fill:#ffffff;stroke:#ffffff;stroke-width:0.313107;stroke-linecap:round;stroke-miterlimit:3.6;stroke-dasharray:none"
       id="circle28-4"
       cx="19.67679"
       cy="4.3194585"
       r="0.36409611" />
    <circle
       style="fill:#ffffff;stroke:#ffffff;stroke-width:0.313107;stroke-linecap:round;stroke-miterlimit:3.6;stroke-dasharray:none"
       id="circle29-1"
       cx="19.671164"
       cy="19.674917"
       r="0.36409611" />
    <circle
       style="fill:#ffffff;stroke:#ffffff;stroke-width:0.313107;stroke-linecap:round;stroke-miterlimit:3.6;stroke-dasharray:none"
       id="circle30-5"
       cx="4.3269615"
       cy="19.680542"
       r="0.36409611" />
    <circle
       style="fill:#ffffff;stroke:#ffffff;stroke-width:0.313107;stroke-linecap:round;stroke-miterlimit:3.6;stroke-dasharray:none"
       id="circle4-6-5-8-6"
       cx="4.3213344"
       cy="4.3250856"
       r="0.36409611" />
  </g>
</svg>
