<?xml version="1.0" encoding="UTF-8" standalone="no"?>
<!-- Created with Inkscape (http://www.inkscape.org/) -->

<svg
   width="24"
   height="24"
   viewBox="0 0 24.000001 24.000001"
   version="1.1"
   id="svg1"
   inkscape:export-filename="koto-rosa.svg"
   inkscape:export-xdpi="96"
   inkscape:export-ydpi="96"
   sodipodi:docname="koto-preto.svg"
   inkscape:version="1.3 (0e150ed6c4, 2023-07-21)"
   xmlns:inkscape="http://www.inkscape.org/namespaces/inkscape"
   xmlns:sodipodi="http://sodipodi.sourceforge.net/DTD/sodipodi-0.dtd"
   xmlns="http://www.w3.org/2000/svg"
   xmlns:svg="http://www.w3.org/2000/svg">
  <sodipodi:namedview
     id="namedview1"
     pagecolor="#ffffff"
     bordercolor="#000000"
     borderopacity="0.25"
     inkscape:showpageshadow="2"
     inkscape:pageopacity="0.0"
     inkscape:pagecheckerboard="0"
     inkscape:deskcolor="#d1d1d1"
     inkscape:document-units="mm"
     inkscape:zoom="17.3125"
     inkscape:cx="-7.133574"
     inkscape:cy="14.873646"
     inkscape:window-width="2560"
     inkscape:window-height="1009"
     inkscape:window-x="-8"
     inkscape:window-y="-8"
     inkscape:window-maximized="1"
     inkscape:current-layer="layer1" />
  <defs
     id="defs1" />
  <g
     inkscape:label="Camada 1"
     inkscape:groupmode="layer"
     id="layer1">
    <g
       id="g5"
       transform="translate(0.0141101,0.17328551)">
      <rect
         style="fill:none;fill-opacity:1;stroke:#000000;stroke-width:0.755906;stroke-linecap:round;stroke-miterlimit:3.6;stroke-dasharray:none;stroke-opacity:1"
         id="rect139"
         width="22.8787"
         height="11.988985"
         x="0.56064987"
         y="5.8322225"
         ry="1.5601659" />
      <g
         id="g4">
        <path
           style="color:#000000;fill:#000000;fill-opacity:1;stroke:#000000;stroke-width:0.376521;stroke-linecap:round;stroke-miterlimit:3.6;stroke-dasharray:none"
           d="m 0.75506638,8.3986586 c -0.051784,-6.775e-4 -0.0942312,0.041532 -0.0946313,0.094095 -6.7841e-4,0.053335 0.04209,0.096744 0.0946313,0.096052 0,0 1.42999242,-0.1179251 2.14672352,-0.1386149 C 9.7290081,8.2531083 23.39127,8.5888053 23.39127,8.5888053 c 0.05178,-4.065e-4 0.09336,-0.043489 0.0927,-0.096052 -3.97e-4,-0.0518 -0.04167,-0.093693 -0.0927,-0.094095 0,0 -13.6622619,-0.335697 -20.4894801,-0.1386149 -0.7167311,0.020686 -2.14672352,0.1386149 -2.14672352,0.1386152 z"
           id="path139"
           sodipodi:nodetypes="cccacccac" />
        <rect
           style="fill:none;fill-opacity:1;stroke:#000000;stroke-width:0.37733;stroke-linecap:round;stroke-miterlimit:3.6;stroke-dasharray:none;stroke-opacity:1"
           id="rect142"
           width="0.24629189"
           height="1.1694902"
           x="4.0838399"
           y="7.7968545"
           ry="0.025842326" />
      </g>
      <g
         id="g3"
         transform="matrix(0.98757565,0,0,1.0017362,0.00648196,0.45179347)">
        <path
           style="color:#000000;fill:#000000;fill-opacity:1;stroke:#000000;stroke-width:0.377953;stroke-linecap:round;stroke-miterlimit:3.6;stroke-dasharray:none"
           d="m 0.69909256,10.457215 c -0.0523705,-6.75e-4 -0.0952984,0.04138 -0.0957031,0.09375 -6.8612e-4,0.05314 0.0425667,0.09639 0.0957031,0.0957 0,0 2.13502444,-0.133092 3.20407554,-0.15468 6.5616989,-0.132506 19.6885029,0.15468 19.6885029,0.15468 0.05237,-4.05e-4 0.09442,-0.04333 0.09375,-0.0957 -4.03e-4,-0.05161 -0.04214,-0.09335 -0.09375,-0.09375 0,0 -13.126804,-0.287186 -19.6885029,-0.15468 -1.0690511,0.02159 -3.20407554,0.15468 -3.20407554,0.15468 z"
           id="path140"
           sodipodi:nodetypes="cccacccac" />
        <rect
           style="fill:none;fill-opacity:1;stroke:#000000;stroke-width:0.377953;stroke-linecap:round;stroke-miterlimit:3.6;stroke-dasharray:none;stroke-opacity:1"
           id="rect142-2"
           width="0.24723659"
           height="1.1688678"
           x="5.5476513"
           y="9.857008"
           ry="0.025828572" />
      </g>
      <g
         id="g2"
         transform="translate(0,1.2006294)">
        <path
           style="color:#000000;fill:#000000;fill-opacity:1;stroke:#000000;stroke-width:0.377953;stroke-linecap:round;stroke-miterlimit:3.6;stroke-dasharray:none"
           d="m 0.55468822,12.255863 c -0.0523705,-6.75e-4 -0.0952984,0.04138 -0.0957031,0.09375 -6.8612e-4,0.05314 0.0425667,0.09639 0.0957031,0.0957 0,0 2.81264558,-0.153972 4.22054158,-0.176777 6.2234752,-0.100808 18.6720362,0.176777 18.6720362,0.176777 0.05237,-4.05e-4 0.09442,-0.04333 0.09375,-0.0957 -4.02e-4,-0.05161 -0.04214,-0.09335 -0.09375,-0.09375 0,0 -12.448562,-0.277585 -18.6720362,-0.176777 -1.407896,0.0228 -4.22054158,0.176777 -4.22054158,0.176777 z"
           id="path141"
           sodipodi:nodetypes="cccacccac" />
        <rect
           style="fill:none;fill-opacity:1;stroke:#000000;stroke-width:0.377953;stroke-linecap:round;stroke-miterlimit:3.6;stroke-dasharray:none;stroke-opacity:1"
           id="rect142-9"
           width="0.24723659"
           height="1.1688678"
           x="7.0127187"
           y="11.656064"
           ry="0.025828572" />
      </g>
      <g
         id="g1">
        <path
           style="color:#000000;fill:#000000;fill-opacity:1;stroke:#000000;stroke-width:0.377953;stroke-linecap:round;stroke-miterlimit:3.6;stroke-dasharray:none"
           d="m 0.43916475,15.989529 c -0.0523705,-6.75e-4 -0.0952984,0.04138 -0.0957031,0.09375 -6.8612e-4,0.05314 0.0425667,0.09639 0.0957031,0.0957 0,0 3.49046705,-0.156053 5.23700755,-0.176777 5.8850717,-0.06983 17.6555707,0.176777 17.6555707,0.176777 0.05237,-4.05e-4 0.09442,-0.04333 0.09375,-0.0957 -4.02e-4,-0.05161 -0.04214,-0.09335 -0.09375,-0.09375 0,0 -11.7705,-0.246608 -17.6555707,-0.176777 -1.7465405,0.02072 -5.23700755,0.176777 -5.23700755,0.176777 z"
           id="path139-5"
           sodipodi:nodetypes="cccacccac" />
        <rect
           style="fill:none;fill-opacity:1;stroke:#000000;stroke-width:0.377953;stroke-linecap:round;stroke-miterlimit:3.6;stroke-dasharray:none;stroke-opacity:1"
           id="rect142-1"
           width="0.24723659"
           height="1.1688678"
           x="8.4777861"
           y="15.386457"
           ry="0.025828572" />
      </g>
    </g>
  </g>
</svg>
