<?xml version="1.0" encoding="UTF-8" standalone="no"?>
<!-- Created with Inkscape (http://www.inkscape.org/) -->

<svg
   width="24"
   height="24"
   viewBox="0 0 24.000001 24.000001"
   version="1.1"
   id="svg1"
   inkscape:export-filename="shakuhachi-rosa.svg"
   inkscape:export-xdpi="96"
   inkscape:export-ydpi="96"
   sodipodi:docname="circulo-preto.svg"
   xmlns:inkscape="http://www.inkscape.org/namespaces/inkscape"
   xmlns:sodipodi="http://sodipodi.sourceforge.net/DTD/sodipodi-0.dtd"
   xmlns="http://www.w3.org/2000/svg"
   xmlns:svg="http://www.w3.org/2000/svg">
  <sodipodi:namedview
     id="namedview1"
     pagecolor="#ffffff"
     bordercolor="#000000"
     borderopacity="0.25"
     inkscape:showpageshadow="2"
     inkscape:pageopacity="0.0"
     inkscape:pagecheckerboard="0"
     inkscape:deskcolor="#d1d1d1"
     inkscape:document-units="mm" />
  <defs
     id="defs1" />
  <g
     inkscape:label="Camada 1"
     inkscape:groupmode="layer"
     id="layer1">
    <g
       id="g138"
       transform="matrix(0.74485177,0.74485177,-0.74485177,0.74485177,11.451876,-5.4747725)">
      <path
         style="stroke-width:0.929659;stroke-linecap:round;stroke-miterlimit:3.6"
         d="m 11.257813,0.93164066 c -0.03885,10e-9 -0.07665,0.004176 -0.113281,0.0117188 -0.03663,0.007542 -0.07182,0.0188858 -0.105469,0.0332031 -0.03365,0.0143173 -0.06578,0.0304564 -0.0957,0.0507813 -0.02992,0.020325 -0.05854,0.044747 -0.08399,0.070312 -0.02544,0.025565 -0.04815,0.053946 -0.06836,0.083984 -0.02021,0.030038 -0.03656,0.06196 -0.05078,0.095703 -0.01423,0.033744 -0.02571,0.068787 -0.0332,0.1054687 -0.0075,0.036682 -0.01172,0.074429 -0.01172,0.1132813 v 1.9042969 c 0,0.038852 0.0042,0.076599 0.01172,0.1132812 0.0075,0.036682 0.01898,0.071725 0.0332,0.1054688 0.01423,0.033743 0.03057,0.065665 0.05078,0.095703 0.02021,0.030038 0.04292,0.058419 0.06836,0.083984 0.02544,0.025565 0.05405,0.049988 0.08399,0.070312 0.02558,0.017372 0.05369,0.029945 0.08203,0.042969 V 16.314454 H 9.416016 c -0.019225,0 -0.038446,0.0036 -0.056641,0.0078 -0.018195,0.0042 -0.035961,0.0095 -0.052734,0.01758 -0.016773,0.0081 -0.031917,0.01786 -0.046875,0.0293 -0.014959,0.01143 -0.030217,0.02468 -0.042969,0.03906 -0.012752,0.01438 -0.023051,0.02998 -0.033203,0.04687 -0.010152,0.0169 -0.020183,0.0357 -0.027344,0.05469 -0.00716,0.01899 -0.011848,0.03795 -0.015625,0.05859 -0.00378,0.02064 -0.00586,0.04259 -0.00586,0.06445 0,0 -0.020773,0.120574 -0.050781,0.31836 -0.030008,0.197784 -0.069364,0.472626 -0.1093751,0.777343 -0.040011,0.304719 -0.079367,0.640139 -0.109375,0.960938 -0.015004,0.1604 -0.028357,0.317459 -0.037109,0.464844 -0.00875,0.147385 -0.013672,0.285189 -0.013672,0.408203 0,0.123014 0.00492,0.260818 0.013672,0.408203 0.00875,0.147385 0.022105,0.304444 0.037109,0.464844 0.030008,0.320798 0.069364,0.65622 0.109375,0.960937 0.040011,0.304719 0.079367,0.579559 0.1093751,0.777344 0.030008,0.197785 0.050781,0.318359 0.050781,0.318359 0.00233,0.04365 0.010632,0.08491 0.025391,0.123047 0.014759,0.03814 0.035627,0.07254 0.060547,0.101563 0.01246,0.01451 0.02644,0.0275 0.041016,0.03906 0.014576,0.01156 0.030466,0.02309 0.046875,0.03125 0.016409,0.0082 0.032823,0.01328 0.050781,0.01758 0.017958,0.0043 0.037416,0.0078 0.056641,0.0078 h 5.152344 c 0.01923,0 0.03649,-0.0035 0.05469,-0.0078 0.0182,-0.0043 0.03595,-0.0094 0.05274,-0.01758 0.01677,-0.0081 0.03387,-0.01775 0.04883,-0.0293 0.01496,-0.01155 0.02826,-0.02651 0.04102,-0.04101 0.01275,-0.0145 0.025,-0.02987 0.03516,-0.04687 0.01015,-0.01701 0.01823,-0.03561 0.02539,-0.05469 0.0072,-0.01908 0.0138,-0.0379 0.01758,-0.05859 0.0038,-0.02069 0.0039,-0.04259 0.0039,-0.06445 0,0 0.02116,-0.120636 0.05273,-0.318359 0.03158,-0.197723 0.07509,-0.472675 0.117188,-0.777344 0.02105,-0.152334 0.04081,-0.312559 0.06055,-0.474609 0.01974,-0.16205 0.0389,-0.32591 0.05469,-0.486328 0.01579,-0.160419 0.02985,-0.317404 0.03906,-0.464844 0.0092,-0.14744 0.01367,-0.285089 0.01367,-0.408203 0,-0.123114 -0.0045,-0.260763 -0.01367,-0.408203 -0.0092,-0.14744 -0.02327,-0.304426 -0.03906,-0.464844 -0.01579,-0.160419 -0.03495,-0.324278 -0.05469,-0.486328 -0.01973,-0.16205 -0.0395,-0.322275 -0.06055,-0.47461 -0.0421,-0.304667 -0.08561,-0.579622 -0.117188,-0.777343 -0.03158,-0.197723 -0.05273,-0.31836 -0.05273,-0.31836 -0.0026,-0.04363 -0.01059,-0.08509 -0.02539,-0.123047 -0.01481,-0.03795 -0.03569,-0.07277 -0.06055,-0.101562 -0.01243,-0.0144 -0.02648,-0.02761 -0.04101,-0.03906 -0.01454,-0.01145 -0.02855,-0.02123 -0.04492,-0.0293 -0.01637,-0.0081 -0.03479,-0.01332 -0.05274,-0.01758 -0.01793,-0.0043 -0.03546,-0.0078 -0.05469,-0.0078 H 12.97461 V 3.9121095 c 0.02834,-0.013024 0.05645,-0.025596 0.08203,-0.042969 0.02992,-0.020325 0.05854,-0.044748 0.08398,-0.070312 0.02544,-0.025565 0.04815,-0.053946 0.06836,-0.083984 0.02021,-0.030038 0.03655,-0.06196 0.05078,-0.095703 0.01423,-0.033744 0.02571,-0.068787 0.0332,-0.1054688 0.0075,-0.036682 0.01172,-0.074429 0.01172,-0.1132812 V 1.4960938 c 0,-0.038853 -0.0042,-0.076599 -0.01172,-0.1132812 -0.0075,-0.036682 -0.01898,-0.071725 -0.0332,-0.1054688 C 13.24553,1.2436002 13.22919,1.2116786 13.20898,1.1816407 13.18877,1.1516027 13.16606,1.1232215 13.14062,1.0976563 13.11518,1.0720912 13.08656,1.0476687 13.05664,1.0273438 13.02672,1.0070189 12.99459,0.9908798 12.96094,0.9765625 12.92729,0.9622452 12.8921,0.9509017 12.855471,0.9433594 12.818841,0.9358174 12.781041,0.9316406 12.74219,0.9316406 Z m 0,0.18359374 h 1.484375 c 0.02663,0 0.05314,0.00281 0.07813,0.00781 0.02498,0.00501 0.04747,0.011954 0.07031,0.021484 0.02285,0.00953 0.04617,0.021578 0.06641,0.035156 0.02023,0.013578 0.03754,0.029729 0.05469,0.046875 0.01715,0.017146 0.03331,0.034452 0.04687,0.054687 0.01358,0.020236 0.02563,0.04356 0.03516,0.066406 0.0095,0.022846 0.01648,0.045335 0.02148,0.070312 0.005,0.024977 0.0078,0.051495 0.0078,0.078125 v 1.9042964 c 0,0.02663 -0.0028,0.053094 -0.0078,0.078125 -0.005,0.025031 -0.01195,0.049328 -0.02148,0.072266 -0.0095,0.022938 -0.02158,0.044103 -0.03516,0.064453 -0.01358,0.02035 -0.02973,0.039372 -0.04687,0.056641 -0.01155,0.011631 -0.02412,0.021205 -0.03711,0.03125 -0.0063,0.00487 -0.01097,0.011155 -0.01758,0.015625 -0.02024,0.013692 -0.04356,0.025534 -0.06641,0.035156 -0.02285,0.00962 -0.04534,0.016426 -0.07031,0.021484 -0.01063,0.00215 -0.02224,0.00264 -0.0332,0.00391 -0.01478,0.0017 -0.02963,0.00391 -0.04492,0.00391 h -1.484375 c -0.01529,0 -0.03014,-0.0022 -0.04492,-0.00391 -0.01096,-0.00126 -0.02257,-0.00175 -0.0332,-0.00391 -0.02498,-0.00506 -0.04747,-0.011862 -0.07031,-0.021484 -0.02285,-0.00962 -0.04617,-0.021464 -0.06641,-0.035156 -0.0066,-0.00447 -0.01128,-0.010756 -0.01758,-0.015625 -0.01299,-0.010045 -0.02556,-0.019619 -0.03711,-0.03125 -0.01715,-0.017268 -0.03331,-0.036291 -0.04687,-0.056641 -0.01358,-0.02035 -0.02563,-0.041516 -0.03516,-0.064453 -0.0095,-0.022937 -0.01648,-0.047235 -0.02148,-0.072266 -0.005,-0.025031 -0.0078,-0.051495 -0.0078,-0.078125 v -1.904297 c 0,-0.02663 0.0028,-0.053148 0.0078,-0.078125 0.005,-0.024977 0.01195,-0.047467 0.02148,-0.070312 0.0095,-0.022846 0.02158,-0.046171 0.03516,-0.066406 0.01358,-0.020236 0.02974,-0.037541 0.04687,-0.054687 0.01715,-0.017146 0.03445,-0.033297 0.05469,-0.046875 0.02024,-0.013578 0.04356,-0.025625 0.06641,-0.035156 0.02285,-0.00953 0.04534,-0.016479 0.07031,-0.021484 0.02498,-0.005 0.05148,-0.00781 0.07813,-0.00781 z m -0.04492,2.8457033 c 0.01507,0.00122 0.02954,0.00391 0.04492,0.00391 h 1.484375 c 0.01538,0 0.02985,-0.00269 0.04492,-0.00391 V 16.314454 H 11.212891 Z M 9.416016,16.501954 h 1.609375 0.1875 1.574219 0.1875 1.59375 c 0.01635,0 0.031,0.0032 0.04492,0.0098 0.01392,0.0065 0.02672,0.01553 0.03711,0.02734 0.01038,0.01181 0.01769,0.02519 0.02344,0.04102 0.0057,0.01583 0.0098,0.03414 0.0098,0.05273 0,0 0.02116,0.120637 0.05274,0.31836 0.03158,0.197721 0.07313,0.472676 0.115234,0.777343 0.02105,0.152335 0.04276,0.31256 0.0625,0.47461 0.01973,0.16205 0.03695,0.325909 0.05273,0.486328 0.01579,0.160418 0.02985,0.317404 0.03906,0.464844 0.0092,0.14744 0.01367,0.285089 0.01367,0.408203 0,0.123114 -0.0045,0.260763 -0.01367,0.408203 -0.0092,0.14744 -0.02327,0.304425 -0.03906,0.464844 -0.01579,0.160418 -0.033,0.324278 -0.05273,0.486328 -0.01974,0.16205 -0.04145,0.322275 -0.0625,0.474609 -0.0421,0.304669 -0.08366,0.579621 -0.115234,0.777344 -0.03158,0.197723 -0.05274,0.318359 -0.05274,0.318359 -0.0011,0.01855 -0.0058,0.03691 -0.01172,0.05274 -0.006,0.01582 -0.01333,0.02919 -0.02344,0.04101 -0.01011,0.01182 -0.02158,0.0208 -0.03516,0.02734 -0.01357,0.0065 -0.02858,0.0098 -0.04492,0.0098 H 9.416016 c -0.016346,0 -0.032956,-0.0032 -0.046875,-0.0098 -0.013919,-0.0065 -0.024771,-0.01553 -0.035156,-0.02734 -0.010385,-0.01181 -0.019645,-0.0252 -0.025391,-0.04101 -0.00575,-0.01583 -0.00781,-0.03415 -0.00781,-0.05274 0,0 -0.020773,-0.120574 -0.050781,-0.318359 C 9.219995,21.976075 9.180639,21.701235 9.140628,21.396516 9.100617,21.091799 9.059308,20.756377 9.0292999,20.435579 c -0.015004,-0.1604 -0.026404,-0.317459 -0.035156,-0.464844 -0.00875,-0.147385 -0.013672,-0.285189 -0.013672,-0.408203 0,-0.123014 0.00492,-0.260818 0.013672,-0.408203 0.00875,-0.147385 0.020152,-0.304444 0.035156,-0.464844 0.030008,-0.320799 0.071318,-0.656219 0.1113281,-0.960938 0.040011,-0.304717 0.079367,-0.579559 0.109375,-0.777343 0.030008,-0.197786 0.050781,-0.31836 0.050781,-0.31836 9.925e-4,-0.01856 0.00383,-0.03691 0.00977,-0.05273 0.00593,-0.01582 0.0133,-0.0292 0.023437,-0.04102 0.010137,-0.01182 0.023501,-0.0208 0.037109,-0.02734 0.013609,-0.0065 0.028576,-0.0098 0.044922,-0.0098 z"
         id="path132"
         sodipodi:nodetypes="sssscsccssccsscccssccscsscssssssssscssscsssscsccccccssscscscssccscccscccssscssccssssssscssccsccsssscscscsccsscccccsccsssscscssscccsscccccccccsccccsscccscscscccscsscsscsssssssssccsccc" />
      <rect
         style="fill:none;fill-opacity:1;stroke:#000000;stroke-width:0.188976;stroke-linecap:round;stroke-miterlimit:3.6;stroke-dasharray:none;stroke-opacity:1"
         id="rect133"
         width="2.0108349"
         height="0.41984469"
         x="10.994583"
         y="21.301592"
         ry="0.027621817" />
      <path
         style="fill:none;fill-opacity:1;stroke:#000000;stroke-width:0.0752108;stroke-linecap:round;stroke-miterlimit:3.6;stroke-dasharray:none;stroke-opacity:1"
         d="m 11.452709,21.310552 c 0.006,-1.117174 0,-18.4110365 0,-18.4110365"
         id="path133" />
      <path
         style="fill:none;fill-opacity:1;stroke:#000000;stroke-width:0.0752713;stroke-linecap:round;stroke-miterlimit:3.6;stroke-dasharray:none;stroke-opacity:1"
         d="m 11.998689,21.310522 c 0.0059,-1.144936 0,-18.868542 0,-18.868542"
         id="path133-6" />
      <path
         style="fill:none;fill-opacity:1;stroke:#000000;stroke-width:0.0753281;stroke-linecap:round;stroke-miterlimit:3.6;stroke-dasharray:none;stroke-opacity:1"
         d="m 12.544667,21.308621 c 0.0058,-1.172142 0,-19.3168985 0,-19.3168985"
         id="path133-6-6" />
      <g
         id="g137"
         transform="translate(0,0.28726209)">
        <path
           style="color:#000000;fill:#000000;stroke-width:1.04514;stroke-linecap:round;stroke-miterlimit:3.6;-inkscape-stroke:none"
           d="M 7.5888892,1.7527866 C 7.3530669,1.7421816 7.162205,1.9272584 7.162205,2.1434116 c 0,0.2161533 0.1908701,0.4013809 0.4266842,0.390625 l 2.3979657,-0.109375 c 0.2358141,-0.010756 0.4437521,-0.065097 0.4437521,-0.28125 0,-0.2161532 -0.173795,-0.2706447 -0.409617,-0.28125 z m 0,0.074219 2.4321008,0.109375 c 0.191561,0.00861 0.326413,0.031448 0.326413,0.2070312 0,0.1755836 -0.168994,0.1982942 -0.3605481,0.2070313 L 7.5888892,2.4598181 C 7.3973348,2.4685552 7.2454084,2.3189954 7.2454084,2.1434118 c 0,-0.1755835 0.1519198,-0.325021 0.3434808,-0.3164062 z"
           id="rect134"
           sodipodi:nodetypes="ssssssssssssss" />
        <rect
           style="fill:none;fill-opacity:1;stroke:#000000;stroke-width:0.102518;stroke-linecap:round;stroke-miterlimit:3.6;stroke-dasharray:none;stroke-opacity:1"
           id="rect135"
           width="2.7621799"
           height="0.0062184525"
           x="10.411787"
           y="2.1294739"
           ry="0.0031092262" />
        <path
           style="color:#000000;fill:#000000;stroke-width:1.04514;stroke-linecap:round;stroke-miterlimit:3.6;-inkscape-stroke:none"
           d="m 16.375178,1.3108449 c 0.235822,-0.010605 0.426684,0.1744718 0.426684,0.390625 0,0.2161533 -0.19087,0.4013809 -0.426684,0.390625 l -2.397966,-0.109375 c -0.235814,-0.010756 -0.443752,-0.065097 -0.443752,-0.28125 0,-0.2161532 0.173795,-0.2706447 0.409617,-0.28125 z m 0,0.074219 -2.432101,0.109375 c -0.191561,0.00861 -0.326413,0.031448 -0.326413,0.2070312 0,0.1755836 0.168994,0.1982942 0.360548,0.2070313 l 2.397966,0.109375 c 0.191554,0.00874 0.34348,-0.1408227 0.34348,-0.3164063 0,-0.1755835 -0.151919,-0.325021 -0.34348,-0.3164062 z"
           id="rect134-7"
           sodipodi:nodetypes="ssssssssssssss" />
        <rect
           style="fill:none;fill-opacity:1;stroke:#000000;stroke-width:0.102456;stroke-linecap:round;stroke-miterlimit:3.6;stroke-dasharray:none;stroke-opacity:1"
           id="rect135-8"
           width="2.7317765"
           height="0.0062801014"
           x="-13.552311"
           y="1.6875017"
           ry="0.0031400507"
           transform="scale(-1,1)" />
        <path
           style="color:#000000;fill:#000000;stroke-width:1.04514;stroke-linecap:round;stroke-miterlimit:3.6;-inkscape-stroke:none"
           d="m 16.419373,2.1947284 c 0.235822,-0.010605 0.426684,0.1744718 0.426684,0.390625 0,0.2161533 -0.19087,0.4013809 -0.426684,0.390625 l -2.397966,-0.109375 c -0.235814,-0.010756 -0.443752,-0.065097 -0.443752,-0.28125 0,-0.2161532 0.173795,-0.2706447 0.409617,-0.28125 z m 0,0.074219 -2.432101,0.109375 c -0.191561,0.00861 -0.326413,0.031448 -0.326413,0.2070312 0,0.1755836 0.168994,0.1982942 0.360548,0.2070313 l 2.397966,0.109375 c 0.191554,0.00874 0.34348,-0.1408227 0.34348,-0.3164063 0,-0.1755835 -0.151919,-0.325021 -0.34348,-0.3164062 z"
           id="rect134-7-3"
           sodipodi:nodetypes="ssssssssssssss" />
        <rect
           style="fill:none;fill-opacity:1;stroke:#000000;stroke-width:0.102514;stroke-linecap:round;stroke-miterlimit:3.6;stroke-dasharray:none;stroke-opacity:1"
           id="rect135-8-1"
           width="2.760288"
           height="0.0062222527"
           x="-13.596477"
           y="2.571414"
           ry="0.0031111264"
           transform="scale(-1,1)" />
      </g>
    </g>
  </g>
</svg>
