<?xml version="1.0" encoding="UTF-8" standalone="no"?>
<!-- Created with Inkscape (http://www.inkscape.org/) -->

<svg
   width="24"
   height="24"
   viewBox="0 0 24.000001 24.000001"
   version="1.1"
   id="svg1"
   inkscape:export-filename="shamisen-preto.svg"
   inkscape:export-xdpi="96"
   inkscape:export-ydpi="96"
   sodipodi:docname="circulo-preto.svg"
   xmlns:inkscape="http://www.inkscape.org/namespaces/inkscape"
   xmlns:sodipodi="http://sodipodi.sourceforge.net/DTD/sodipodi-0.dtd"
   xmlns="http://www.w3.org/2000/svg"
   xmlns:svg="http://www.w3.org/2000/svg">
  <sodipodi:namedview
     id="namedview1"
     pagecolor="#ffffff"
     bordercolor="#000000"
     borderopacity="0.25"
     inkscape:showpageshadow="2"
     inkscape:pageopacity="0.0"
     inkscape:pagecheckerboard="0"
     inkscape:deskcolor="#d1d1d1"
     inkscape:document-units="mm" />
  <defs
     id="defs1" />
  <g
     inkscape:label="Camada 1"
     inkscape:groupmode="layer"
     id="layer1">
    <path
       style="fill:#e40788;fill-opacity:1;stroke-width:0.979284;stroke-linecap:round;stroke-miterlimit:3.6"
       d="m 19.143344,3.6045636 c -0.02894,-0.028937 -0.0602,-0.053982 -0.09311,-0.075649 -0.0329,-0.021666 -0.06756,-0.039428 -0.10329,-0.053827 -0.03573,-0.0144 -0.07168,-0.026311 -0.109107,-0.033458 -0.03742,-0.00715 -0.07693,-0.010274 -0.114932,-0.010188 -0.03799,9.31e-5 -0.07605,0.00432 -0.113473,0.011638 -0.03743,0.00732 -0.07338,0.018919 -0.109109,0.033461 -0.03573,0.014535 -0.07039,0.032086 -0.103287,0.053829 -0.03291,0.021736 -0.06417,0.046709 -0.09311,0.075648 l -1.418419,1.418419 c -0.02894,0.028939 -0.05393,0.060183 -0.07565,0.093107 -0.02174,0.032909 -0.03929,0.067562 -0.05383,0.1032877 -0.01453,0.035733 -0.02614,0.071681 -0.03346,0.1091081 -0.0073,0.037427 -0.01155,0.075483 -0.01164,0.1134737 -9.3e-5,0.037991 0.003,0.077493 0.01019,0.1149322 0.0061,0.031993 0.01769,0.062296 0.0291,0.093106 L 7.5123096,14.889361 6.3135622,13.690614 c -0.01432,-0.01432 -0.031318,-0.02595 -0.047999,-0.03638 -0.016681,-0.01042 -0.033862,-0.01971 -0.052374,-0.02618 -0.018527,-0.0065 -0.037076,-0.01047 -0.056739,-0.01309 -0.019656,-0.0026 -0.04089,-0.0041 -0.0611,-0.0029 -0.020209,0.0012 -0.0395,0.0052 -0.059642,0.01018 -0.02015,0.005 -0.041625,0.01156 -0.061103,0.02037 -0.019478,0.0088 -0.037092,0.01944 -0.055279,0.032 -0.018189,0.01256 -0.036088,0.02736 -0.052371,0.04364 0,0 -0.1052825,0.07434 -0.2749553,0.199307 -0.1696713,0.124968 -0.4037022,0.300371 -0.6604735,0.497537 -0.2567728,0.197168 -0.5359254,0.417692 -0.7972246,0.634288 -0.13065,0.108299 -0.2575816,0.215339 -0.3738806,0.3186 -0.1162974,0.103262 -0.2226071,0.202239 -0.3142343,0.293867 -0.091627,0.09163 -0.1906061,0.197935 -0.2938671,0.314234 -0.1032625,0.116297 -0.2103007,0.243231 -0.3185992,0.373881 -0.2165954,0.261298 -0.4371207,0.540452 -0.6342874,0.797223 -0.1971683,0.256773 -0.3725689,0.490803 -0.4975379,0.660475 -0.124969,0.169672 -0.1993059,0.274954 -0.1993059,0.274954 -0.030777,0.03425 -0.055326,0.07117 -0.072739,0.110565 -0.017415,0.0394 -0.027495,0.08057 -0.030551,0.120747 -0.00153,0.02009 -7.895e-4,0.04018 0.00146,0.05964 0.00225,0.01947 0.00549,0.03989 0.011638,0.05819 0.00611,0.01833 0.014557,0.03434 0.02473,0.05092 0.010173,0.01658 0.02206,0.03368 0.036379,0.048 l 3.8377325,3.837732 c 0.014324,0.01432 0.029787,0.02457 0.046546,0.03493 0.016759,0.01035 0.033779,0.01978 0.052378,0.02619 0.018524,0.0065 0.038449,0.01201 0.058195,0.01455 0.019746,0.0025 0.040796,0.0013 0.0611,8e-6 0.020297,-0.0013 0.04087,-0.0036 0.0611,-0.0087 0.02023,-0.0051 0.040103,-0.01295 0.059648,-0.02182 0.019575,-0.0088 0.038509,-0.01795 0.056735,-0.03055 0.018241,-0.01258 0.034628,-0.02882 0.050911,-0.0451 0,0 0.105617,-0.07409 0.2764063,-0.197854 0.1707948,-0.123794 0.4080018,-0.296184 0.6662918,-0.49176 0.1291454,-0.09779 0.2632075,-0.202413 0.3986141,-0.308413 0.1354066,-0.106 0.2717294,-0.21378 0.4029782,-0.321506 0.1312496,-0.107728 0.2586528,-0.214185 0.3753338,-0.317146 0.1166736,-0.102969 0.2225312,-0.202167 0.3142329,-0.293869 0.091702,-0.0917 0.1908779,-0.197582 0.2938686,-0.314233 0.1029683,-0.116673 0.2094195,-0.244085 0.3171459,-0.375334 0.1077272,-0.131249 0.2155065,-0.267571 0.3215064,-0.402978 0.1060073,-0.135399 0.2106254,-0.269469 0.3084133,-0.398615 0.1955735,-0.25829 0.3679657,-0.495499 0.4917176,-0.666293 0.1237522,-0.170796 0.1978552,-0.276407 0.1978552,-0.276407 0.03056,-0.03443 0.05549,-0.07127 0.07274,-0.110563 0.01724,-0.0393 0.02762,-0.08079 0.03055,-0.12075 0.0015,-0.01998 8.41e-4,-0.04029 -0.0015,-0.05964 -0.0023,-0.01936 -0.0055,-0.03708 -0.01163,-0.05528 -0.0062,-0.01823 -0.01599,-0.03583 -0.02619,-0.05238 -0.01015,-0.01656 -0.0206,-0.03222 -0.03493,-0.04655 L 8.9641865,16.341239 18.202096,7.1033304 c 0.03081,0.011408 0.06111,0.022982 0.0931,0.029095 0.03743,0.00715 0.07694,0.010273 0.114925,0.010181 0.03799,-9.31e-5 0.07605,-0.00432 0.113474,-0.011638 0.03743,-0.00732 0.07338,-0.018927 0.109108,-0.033461 0.03573,-0.014535 0.07039,-0.032086 0.103287,-0.05383 0.03291,-0.021736 0.06417,-0.046709 0.09311,-0.075648 l 1.418419,-1.4184195 c 0.02894,-0.02894 0.05393,-0.060183 0.07565,-0.093107 0.02174,-0.032909 0.03929,-0.067562 0.05383,-0.1032877 0.01454,-0.035733 0.02614,-0.071681 0.03346,-0.1091082 0.0073,-0.037427 0.01154,-0.075483 0.01164,-0.113474 9.3e-5,-0.037991 -0.003,-0.0775 -0.01018,-0.114925 -0.0071,-0.037425 -0.01906,-0.073378 -0.03346,-0.1091069 -0.0144,-0.035729 -0.03216,-0.070389 -0.05383,-0.1032902 -0.02167,-0.032902 -0.04671,-0.064168 -0.07565,-0.093106 z m -0.13675,0.1367502 1.105639,1.1056393 c 0.01984,0.019835 0.03749,0.041675 0.05238,0.064013 0.01487,0.022338 0.02645,0.044262 0.03637,0.068373 0.0099,0.024118 0.01832,0.050462 0.02328,0.075652 0.005,0.025182 0.0058,0.050105 0.0058,0.075651 3e-6,0.025545 -8.51e-4,0.050473 -0.0058,0.075645 -0.005,0.025188 -0.01336,0.051536 -0.02327,0.075652 -0.0099,0.024093 -0.02149,0.046043 -0.03637,0.068371 -0.01488,0.022328 -0.03255,0.044166 -0.05238,0.064001 L 18.693811,6.832729 c -0.01984,0.019835 -0.04163,0.037462 -0.064,0.052382 -0.02237,0.01492 -0.04564,0.027841 -0.06983,0.037828 -0.02416,0.010009 -0.04892,0.016776 -0.0742,0.021819 -0.02527,0.00504 -0.05147,0.00718 -0.0771,0.00728 -0.01727,6.03e-5 -0.03376,-0.00217 -0.05092,-0.00436 -0.0083,-0.00107 -0.01648,1.378e-4 -0.02473,-0.00146 -0.02527,-0.00488 -0.05146,-0.013427 -0.07565,-0.02328 -0.02419,-0.00985 -0.04601,-0.021537 -0.06837,-0.036368 -0.0095,-0.00632 -0.01853,-0.014599 -0.02764,-0.021817 -0.01227,-0.00974 -0.02498,-0.019158 -0.03637,-0.030546 L 17.019358,5.7285644 c -0.01139,-0.011389 -0.02081,-0.024088 -0.03055,-0.036371 -0.0072,-0.0091 -0.01551,-0.018115 -0.02182,-0.027641 -0.01484,-0.022375 -0.02652,-0.044194 -0.03637,-0.068373 -0.0099,-0.024185 -0.0184,-0.050377 -0.02328,-0.075652 -0.0016,-0.00825 -3.9e-4,-0.016414 -0.0015,-0.024733 -0.0022,-0.017158 -0.0044,-0.033652 -0.0044,-0.050918 8.8e-5,-0.025636 0.0022,-0.051843 0.0073,-0.0771 0.005,-0.025273 0.01183,-0.050014 0.02182,-0.074197 0.01001,-0.024161 0.02291,-0.047458 0.03783,-0.069827 0.01492,-0.022369 0.03255,-0.044166 0.05238,-0.064001 l 1.418419,-1.418419 c 0.01984,-0.019835 0.04167,-0.037502 0.064,-0.052382 0.02233,-0.01488 0.04426,-0.026455 0.06837,-0.036373 0.02409,-0.00994 0.05046,-0.018317 0.07565,-0.023274 0.02519,-0.00496 0.05011,-0.00581 0.07564,-0.00582 0.02555,3e-6 0.05046,8.588e-4 0.07565,0.00582 0.02519,0.00496 0.05153,0.013359 0.07565,0.02328 0.02412,0.00992 0.04605,0.021497 0.06837,0.036368 0.02233,0.014882 0.04416,0.032528 0.06401,0.052378 z m -2.153086,2.0861684 c 0.01032,0.012134 0.01909,0.024915 0.03055,0.036371 l 1.105639,1.1056393 c 0.01146,0.011456 0.02424,0.02023 0.03637,0.030546 L 8.8245261,16.201577 7.6519678,15.029019 Z m -10.6796055,8.0027908 1.1987459,1.198746 0.1396597,0.13966 1.1725598,1.17256 0.1396597,0.139659 1.1871074,1.187108 c 0.01218,0.01218 0.02071,0.02547 0.02616,0.04076 0.0055,0.01521 0.0083,0.03147 0.0073,0.04801 -0.0011,0.01653 -0.0056,0.03194 -0.01309,0.04801 -0.0075,0.01604 -0.01813,0.03273 -0.03198,0.04658 0,0 -0.074096,0.105617 -0.197848,0.276414 -0.1237504,0.170795 -0.2976026,0.406545 -0.4931731,0.664838 -0.097788,0.129146 -0.200961,0.26466 -0.3069608,0.400067 -0.1060074,0.135399 -0.2152317,0.270276 -0.3229663,0.401518 -0.1077264,0.131249 -0.2141851,0.258653 -0.317146,0.375334 -0.1029683,0.116674 -0.2021669,0.222531 -0.2938686,0.314233 -0.091702,0.0917 -0.1975816,0.190878 -0.3142328,0.293869 -0.1166736,0.102968 -0.2440842,0.209418 -0.3753338,0.317145 -0.1312488,0.107727 -0.2661191,0.216959 -0.4015183,0.322967 -0.1354066,0.106 -0.2709212,0.209173 -0.4000666,0.30696 -0.2582915,0.195575 -0.494046,0.369417 -0.6648383,0.493174 -0.1707967,0.123752 -0.2764137,0.197846 -0.2764137,0.197846 -0.014636,0.013 -0.031813,0.02317 -0.048013,0.03055 -0.016253,0.0073 -0.031671,0.01181 -0.048006,0.01309 -0.016335,0.0013 -0.031567,-5.81e-4 -0.046553,-0.0058 -0.014949,-0.0053 -0.028587,-0.01399 -0.040758,-0.02616 L 1.6145494,18.389626 c -0.012175,-0.01217 -0.022164,-0.02693 -0.027615,-0.04221 -0.00553,-0.01521 -0.00688,-0.03002 -0.00582,-0.04655 0.00106,-0.01653 0.00414,-0.0334 0.011634,-0.04946 0.00751,-0.01607 0.019619,-0.03125 0.033466,-0.0451 0,0 0.074337,-0.105283 0.1993059,-0.274955 0.124969,-0.169672 0.3003697,-0.403701 0.4975379,-0.660474 0.1971668,-0.256771 0.4162374,-0.53738 0.6328327,-0.798678 0.1082985,-0.13065 0.2167929,-0.256127 0.3200539,-0.372426 0.1032625,-0.116298 0.2022399,-0.222607 0.2938671,-0.314235 0.091627,-0.09163 0.1979354,-0.190606 0.3142343,-0.293867 C 4.0003416,15.388405 4.12582,15.279912 4.25647,15.171613 4.5177692,14.955017 4.7983773,14.735949 5.0551493,14.53878 c 0.2567713,-0.197167 0.4908022,-0.372569 0.6604735,-0.497537 0.1696728,-0.12497 0.2749553,-0.199307 0.2749553,-0.199307 0.014564,-0.01309 0.030345,-0.02464 0.046553,-0.032 0.016201,-0.0074 0.031656,-0.01184 0.048011,-0.0131 0.016355,-0.0013 0.032998,0.002 0.048005,0.0073 0.014978,0.0053 0.028585,0.01398 0.04076,0.02616 z"
       id="path132"
       sodipodi:nodetypes="sssscsccssccsscccssccscsscssssssssscssscsssscsccccccssscscscssccscccscccssscssccssssssscssccsccsssscscscsccsscccccsccsssscscssscccsscccccccccsccccsscccscscscccscsscsscsssssssssccsccc" />
    <rect
       style="fill:none;fill-opacity:1;stroke:#e40788;stroke-width:0.199063;stroke-linecap:round;stroke-miterlimit:3.6;stroke-dasharray:none;stroke-opacity:1"
       id="rect133"
       width="2.1181722"
       height="0.44225577"
       x="15.807919"
       y="10.469711"
       ry="0.029096255"
       transform="rotate(45)" />
    <path
       style="fill:none;fill-opacity:1;stroke:#e40788;stroke-width:0.0792255;stroke-linecap:round;stroke-miterlimit:3.6;stroke-dasharray:none;stroke-opacity:1"
       d="M 4.1092442,18.929 C 4.9458423,18.101341 17.822737,5.2155073 17.822737,5.2155073"
       id="path133" />
    <path
       style="fill:none;fill-opacity:1;stroke:#e40788;stroke-width:0.0792892;stroke-linecap:round;stroke-miterlimit:3.6;stroke-dasharray:none;stroke-opacity:1"
       d="M 4.5159407,19.335652 C 5.3731429,18.487239 18.570208,5.2813854 18.570208,5.2813854"
       id="path133-6" />
    <path
       style="fill:none;fill-opacity:1;stroke:#e40788;stroke-width:0.0793491;stroke-linecap:round;stroke-miterlimit:3.6;stroke-dasharray:none;stroke-opacity:1"
       d="M 4.9240294,19.740909 C 5.8014215,18.872157 19.312255,5.3526829 19.312255,5.3526829"
       id="path133-6-6" />
    <path
       style="color:#000000;fill:#e40788;fill-opacity:1;stroke-width:1.10093;stroke-linecap:round;stroke-miterlimit:3.6;-inkscape-stroke:none"
       d="M 15.584939,1.697359 C 15.417186,1.5138071 15.137167,1.5094981 14.976165,1.6705 c -0.161002,0.1610022 -0.156799,0.4411392 0.02686,0.6087742 l 1.867597,1.7046608 c 0.183658,0.167635 0.379017,0.282042 0.540019,0.12104 0.161002,-0.1610021 0.07214,-0.3310417 -0.09561,-0.5145935 z m -0.05528,0.055282 1.730087,1.8930228 c 0.136271,0.1490977 0.219705,0.2665534 0.08892,0.3973368 C 17.217882,4.1737845 17.07509,4.064825 16.925903,3.9286535 L 15.058306,2.2239926 c -0.149188,-0.1361718 -0.150951,-0.3607343 -0.02017,-0.4915181 0.130784,-0.1307836 0.35525,-0.1289347 0.491518,0.020167 z"
       id="rect134"
       sodipodi:nodetypes="ssssssssssssss" />
    <rect
       style="fill:none;fill-opacity:1;stroke:#e40788;stroke-width:0.10799;stroke-linecap:round;stroke-miterlimit:3.6;stroke-dasharray:none;stroke-opacity:1"
       id="rect135"
       width="2.9096236"
       height="0.0065503903"
       x="15.194013"
       y="-9.4232073"
       ry="0.0032751951"
       transform="rotate(45)" />
    <path
       style="color:#000000;fill:#e40788;fill-opacity:1;stroke-width:1.10093;stroke-linecap:round;stroke-miterlimit:3.6;-inkscape-stroke:none"
       d="m 22.458603,7.9126607 c 0.183552,0.1677532 0.187861,0.4477719 0.02686,0.608774 -0.161002,0.1610022 -0.441139,0.1567994 -0.608774,-0.026859 l -1.704662,-1.867597 c -0.167635,-0.1836581 -0.282042,-0.3790171 -0.12104,-0.540019 0.161002,-0.1610021 0.331041,-0.072139 0.514593,0.095614 z M 22.403323,7.9679427 20.5103,6.2378561 C 20.3612,6.1015849 20.243745,6.018151 20.112961,6.1489345 c -0.130783,0.1307838 -0.02182,0.2735753 0.114347,0.4227624 l 1.704662,1.8675974 c 0.136169,0.1491894 0.360733,0.1509497 0.491517,0.020166 0.130784,-0.1307837 0.128935,-0.3552496 -0.02017,-0.4915174 z"
       id="rect134-7"
       sodipodi:nodetypes="ssssssssssssss" />
    <rect
       style="fill:none;fill-opacity:1;stroke:#e40788;stroke-width:0.107925;stroke-linecap:round;stroke-miterlimit:3.6;stroke-dasharray:none;stroke-opacity:1"
       id="rect135-8"
       width="2.8775973"
       height="0.00661533"
       x="-18.502176"
       y="-9.888772"
       ry="0.003307665"
       transform="matrix(-0.70710678,-0.70710678,-0.70710678,0.70710678,0,0)" />
    <path
       style="color:#000000;fill:#e40788;fill-opacity:1;stroke-width:1.10093;stroke-linecap:round;stroke-miterlimit:3.6;-inkscape-stroke:none"
       d="m 21.83316,8.6039416 c 0.183551,0.1677533 0.18786,0.4477719 0.02686,0.608774 C 21.699016,9.3737178 21.418879,9.369515 21.251244,9.185857 L 19.546583,7.3182596 c -0.167635,-0.1836581 -0.282042,-0.379017 -0.12104,-0.540019 0.161002,-0.1610021 0.331042,-0.072139 0.514594,0.095614 z m -0.05528,0.055282 -1.893023,-1.7300865 c -0.1491,-0.1362713 -0.266556,-0.2197051 -0.397339,-0.088922 -0.130784,0.1307838 -0.02182,0.2735753 0.114347,0.4227625 l 1.704661,1.8675973 c 0.136169,0.1491894 0.360734,0.1509497 0.491518,0.020166 0.130783,-0.1307836 0.128935,-0.3552496 -0.02017,-0.4915174 z"
       id="rect134-7-3"
       sodipodi:nodetypes="ssssssssssssss" />
    <rect
       style="fill:none;fill-opacity:1;stroke:#e40788;stroke-width:0.107986;stroke-linecap:round;stroke-miterlimit:3.6;stroke-dasharray:none;stroke-opacity:1"
       id="rect135-8-1"
       width="2.9076307"
       height="0.0065543931"
       x="-18.5487"
       y="-8.9576769"
       ry="0.0032771965"
       transform="matrix(-0.70710678,-0.70710678,-0.70710678,0.70710678,0,0)" />
  </g>
</svg>
