<?xml version="1.0" encoding="UTF-8" standalone="no"?>
<!-- Created with Inkscape (http://www.inkscape.org/) -->

<svg
   width="24"
   height="24"
   viewBox="0 0 24.000001 24.000001"
   version="1.1"
   id="svg1"
   inkscape:export-filename="tetsu-preto.svg"
   inkscape:export-xdpi="96"
   inkscape:export-ydpi="96"
   sodipodi:docname="circulo-preto.svg"
   xmlns:inkscape="http://www.inkscape.org/namespaces/inkscape"
   xmlns:sodipodi="http://sodipodi.sourceforge.net/DTD/sodipodi-0.dtd"
   xmlns="http://www.w3.org/2000/svg"
   xmlns:svg="http://www.w3.org/2000/svg">
  <sodipodi:namedview
     id="namedview1"
     pagecolor="#ffffff"
     bordercolor="#000000"
     borderopacity="0.25"
     inkscape:showpageshadow="2"
     inkscape:pageopacity="0.0"
     inkscape:pagecheckerboard="0"
     inkscape:deskcolor="#d1d1d1"
     inkscape:document-units="mm" />
  <defs
     id="defs1" />
  <g
     inkscape:label="Camada 1"
     inkscape:groupmode="layer"
     id="layer1">
    <path
       id="path100"
       style="fill:#e40788;fill-opacity:1;stroke-linecap:round;stroke-miterlimit:3.6"
       d="m 7.6855473,6.8808498 c -0.073698,0 -0.1469349,0.00335 -0.21875,0.00977 -0.071815,0.00642 -0.1413679,0.016783 -0.2109375,0.029297 -0.06957,0.012514 -0.1381171,0.028581 -0.2050782,0.046875 -0.066961,0.018294 -0.1332765,0.038744 -0.1972656,0.0625 -0.063989,0.023756 -0.126846,0.049225 -0.1875,0.078125 -0.060654,0.0289 -0.1188253,0.061977 -0.1757813,0.095703 -0.056956,0.033727 -0.113121,0.069187 -0.1660156,0.1074219 -0.052895,0.038235 -0.1019207,0.078668 -0.1503906,0.1210937 -0.04847,0.042426 -0.094989,0.086514 -0.1386719,0.1328125 -0.043682,0.046299 -0.084515,0.094678 -0.1230469,0.1445313 -0.038532,0.049853 -0.074404,0.1012063 -0.1074219,0.1542969 -0.033017,0.053091 -0.064656,0.1080528 -0.091797,0.1640625 -0.02714,0.05601 -0.051366,0.1132641 -0.072266,0.171875 -0.0209,0.058611 -0.038438,0.1187933 -0.052734,0.1796875 -0.00422,0.017978 -0.00614,0.03653 -0.00977,0.054687 H 1.5195314 c -0.048472,0 -0.097266,0.00296 -0.1445312,0.00781 -0.047265,0.00485 -0.092857,0.012024 -0.1386719,0.021484 -0.045815,0.00946 -0.090644,0.02133 -0.1347657,0.035156 -0.044121,0.013826 -0.086721,0.028926 -0.12890625,0.046875 -0.0421849,0.017949 -0.0849944,0.038718 -0.125,0.060547 -0.0400056,0.021828 -0.077651,0.044847 -0.11523438,0.070312 -0.0751668,0.050931 -0.14496398,0.1098078 -0.20898439,0.1738281 -0.0640204,0.06402 -0.1228976,0.1338177 -0.17382813,0.2089844 -0.0254653,0.037584 -0.0484841,0.075229 -0.0703125,0.1152344 -0.0218284,0.040006 -0.0425983,0.082815 -0.0605469,0.125 -0.0179486,0.042185 -0.0330492,0.084785 -0.046875,0.1289063 -0.0138259,0.044121 -0.0256961,0.088951 -0.0351563,0.1347656 -0.00946,0.045815 -0.0166328,0.091407 -0.0214844,0.1386719 -0.004852,0.047265 -0.007813,0.096059 -0.007813,0.1445312 v 4.308594 c 0,0.04847 0.002961,0.09727 0.007813,0.144532 0.004852,0.04727 0.0120242,0.09286 0.0214844,0.138672 0.00946,0.04581 0.0213304,0.09064 0.0351563,0.134765 0.0138258,0.04412 0.0289264,0.08672 0.046875,0.128906 0.0179486,0.04218 0.0387185,0.085 0.0605469,0.125 0.0218284,0.04001 0.0448472,0.07765 0.0703125,0.115235 0.0509306,0.07517 0.10980774,0.144964 0.17382813,0.208984 0.0640204,0.06402 0.1338176,0.122898 0.20898439,0.173828 0.0375834,0.02547 0.0752287,0.04848 0.11523438,0.07031 0.0400056,0.02183 0.0828151,0.0426 0.125,0.06055 0.0421849,0.01795 0.0847851,0.03306 0.12890625,0.04687 0.044121,0.01383 0.088951,0.0257 0.1347657,0.03516 0.045815,0.0095 0.091407,0.01663 0.1386719,0.02148 0.047265,0.0049 0.096059,0.0078 0.1445312,0.0078 h 4.0585939 c 0.00362,0.01816 0.00554,0.03671 0.00977,0.05469 0.014297,0.0609 0.031834,0.121077 0.052734,0.179688 0.0209,0.05861 0.045125,0.115865 0.072266,0.171875 0.02714,0.05601 0.058779,0.110972 0.091797,0.164062 0.033018,0.05309 0.06889,0.104444 0.1074219,0.154297 0.038532,0.04985 0.079364,0.09823 0.1230469,0.144532 0.043682,0.0463 0.090202,0.09039 0.1386719,0.132812 0.04847,0.04243 0.097496,0.08286 0.1503906,0.121094 0.052895,0.03824 0.1090598,0.07369 0.1660156,0.107422 0.056956,0.03373 0.1151273,0.0668 0.1757813,0.0957 0.060654,0.0289 0.123511,0.05436 0.1875,0.07813 0.063989,0.02376 0.1303047,0.04421 0.1972656,0.0625 0.066961,0.01829 0.1355085,0.03436 0.2050782,0.04687 0.06957,0.01251 0.1391223,0.02288 0.2109375,0.0293 0.071815,0.0064 0.1450525,0.0098 0.21875,0.0098 h 8.6289062 c 0.0737,0 0.146935,-0.0033 0.21875,-0.0098 0.07181,-0.0064 0.141368,-0.01678 0.210937,-0.0293 0.06957,-0.01251 0.138118,-0.02858 0.205078,-0.04687 0.06696,-0.01829 0.133277,-0.03874 0.197266,-0.0625 0.06399,-0.02376 0.126846,-0.04922 0.1875,-0.07813 0.06065,-0.0289 0.118825,-0.06198 0.175781,-0.0957 0.05696,-0.03373 0.113121,-0.06919 0.166016,-0.107422 0.05289,-0.03824 0.101921,-0.07867 0.150391,-0.121094 0.04847,-0.04243 0.09499,-0.08651 0.138671,-0.132812 0.04368,-0.0463 0.08452,-0.09468 0.123047,-0.144532 0.03853,-0.04985 0.07441,-0.101206 0.107422,-0.154297 0.03302,-0.05309 0.06466,-0.108052 0.0918,-0.164062 0.02714,-0.05601 0.05137,-0.113264 0.07227,-0.171875 0.0209,-0.05861 0.03844,-0.118793 0.05273,-0.179688 0.0042,-0.01798 0.0061,-0.03653 0.0098,-0.05469 h 4.058594 c 0.04847,0 0.09727,-0.003 0.144531,-0.0078 0.04726,-0.0049 0.09286,-0.01202 0.138672,-0.02148 0.04581,-0.0095 0.09064,-0.02133 0.134765,-0.03516 0.04412,-0.01383 0.08672,-0.02893 0.128907,-0.04687 0.04218,-0.01795 0.08499,-0.03872 0.125,-0.06055 0.04001,-0.02183 0.07765,-0.04485 0.115234,-0.07031 0.07517,-0.05093 0.144965,-0.109807 0.208984,-0.173828 0.06402,-0.06402 0.122898,-0.133817 0.173829,-0.208984 0.02547,-0.03758 0.04848,-0.07523 0.07031,-0.115235 0.02183,-0.04 0.0426,-0.08282 0.06055,-0.125 0.01795,-0.04218 0.03305,-0.08479 0.04687,-0.128906 0.01383,-0.04412 0.0257,-0.08895 0.03516,-0.134765 0.0095,-0.04581 0.01663,-0.09141 0.02148,-0.138672 0.0049,-0.04726 0.0078,-0.09606 0.0078,-0.144532 V 9.8456936 c 0,-0.048473 -0.003,-0.097266 -0.0078,-0.1445311 -0.0049,-0.047265 -0.01204,-0.092857 -0.02148,-0.1386719 -0.0095,-0.045815 -0.02133,-0.090644 -0.03516,-0.1347656 -0.01383,-0.044121 -0.02894,-0.086721 -0.04687,-0.1289064 -0.01795,-0.042185 -0.03872,-0.084994 -0.06055,-0.125 -0.02183,-0.040006 -0.04485,-0.077651 -0.07031,-0.1152344 -0.05093,-0.075167 -0.109808,-0.1449639 -0.173829,-0.2089844 -0.06402,-0.06402 -0.133817,-0.1228975 -0.208984,-0.1738281 -0.03758,-0.025465 -0.07523,-0.048485 -0.115234,-0.070312 -0.04001,-0.021828 -0.08282,-0.042598 -0.125,-0.060547 -0.04218,-0.017949 -0.08479,-0.033049 -0.128907,-0.046875 -0.04412,-0.013826 -0.08895,-0.025696 -0.134765,-0.035156 -0.04582,-0.00946 -0.09141,-0.016633 -0.138672,-0.021484 -0.04726,-0.00485 -0.09606,-0.00781 -0.144531,-0.00781 h -4.058594 c -0.0036,-0.018159 -0.0055,-0.03671 -0.0098,-0.054687 -0.0143,-0.060894 -0.03183,-0.1210766 -0.05273,-0.1796875 -0.0209,-0.058611 -0.04513,-0.1158654 -0.07227,-0.171875 -0.02714,-0.05601 -0.05878,-0.1109721 -0.0918,-0.1640625 -0.03302,-0.053091 -0.06889,-0.1044435 -0.107422,-0.1542969 -0.03853,-0.049854 -0.07936,-0.098233 -0.123047,-0.1445313 -0.04368,-0.046299 -0.0902,-0.090387 -0.138671,-0.1328125 -0.04847,-0.042426 -0.0975,-0.082858 -0.150391,-0.1210937 -0.0529,-0.038235 -0.10906,-0.073695 -0.166016,-0.1074219 -0.05696,-0.033727 -0.115127,-0.066803 -0.175781,-0.095703 -0.06065,-0.0289 -0.123511,-0.054369 -0.1875,-0.078125 -0.06399,-0.023756 -0.130305,-0.044206 -0.197266,-0.0625 -0.06696,-0.018294 -0.135508,-0.034361 -0.205078,-0.046875 -0.06957,-0.012514 -0.139122,-0.022881 -0.210937,-0.029297 -0.07182,-0.00642 -0.145053,-0.00977 -0.21875,-0.00977 z m 0,0.6308594 h 8.6289067 c 0.099,0 0.196097,0.00901 0.289062,0.025391 0.09297,0.016383 0.182459,0.041086 0.267578,0.072266 0.08512,0.03118 0.164771,0.068891 0.240235,0.1132813 0.07546,0.044391 0.146942,0.094375 0.210937,0.1503906 0.064,0.056015 0.121161,0.1175399 0.171875,0.1835938 0.02536,0.033027 0.04862,0.068276 0.07031,0.1035156 0.0217,0.035239 0.04078,0.072122 0.05859,0.109375 0.01781,0.037253 0.03513,0.074212 0.04883,0.1132812 0.0058,0.016612 0.0086,0.033867 0.01367,0.050781 0.0068,0.022866 0.01415,0.044972 0.01953,0.068359 0.0094,0.040686 0.01669,0.082894 0.02148,0.125 0.0048,0.042105 0.0078,0.08558 0.0078,0.1289062 v 0.4335938 5.6210933 0.433594 c 0,0.04333 -0.003,0.0868 -0.0078,0.128907 -0.0048,0.0421 -0.01213,0.08431 -0.02148,0.125 -0.0054,0.02339 -0.0127,0.04549 -0.01953,0.06836 -0.0051,0.01691 -0.0078,0.03417 -0.01367,0.05078 -0.0137,0.03907 -0.03102,0.07603 -0.04883,0.113281 -0.01781,0.03725 -0.0369,0.07414 -0.05859,0.109375 -0.0217,0.03524 -0.04496,0.07049 -0.07031,0.103516 -0.05071,0.06605 -0.107879,0.127578 -0.171875,0.183594 -0.06399,0.05601 -0.135473,0.106 -0.210937,0.15039 -0.07546,0.04439 -0.155114,0.0821 -0.240235,0.113282 -0.08512,0.03118 -0.174612,0.05588 -0.267578,0.07226 -0.09296,0.01638 -0.190064,0.02539 -0.289062,0.02539 H 7.6855473 c -0.098998,0 -0.1960973,-0.009 -0.2890625,-0.02539 -0.092965,-0.01638 -0.1824573,-0.04108 -0.2675782,-0.07226 -0.085121,-0.03118 -0.1647702,-0.06889 -0.2402343,-0.113282 -0.075464,-0.04439 -0.1469421,-0.09437 -0.2109375,-0.15039 -0.063996,-0.05602 -0.1211602,-0.11754 -0.1718751,-0.183594 -0.025357,-0.03303 -0.048616,-0.06828 -0.070312,-0.103516 -0.021697,-0.03524 -0.040783,-0.07212 -0.058594,-0.109375 -0.017811,-0.03725 -0.03513,-0.07421 -0.048828,-0.113281 -0.00582,-0.01661 -0.00862,-0.03387 -0.013672,-0.05078 -0.00683,-0.02287 -0.014152,-0.04497 -0.019531,-0.06836 -0.00936,-0.04069 -0.016692,-0.0829 -0.021484,-0.125 -0.00479,-0.04211 -0.00781,-0.08558 -0.00781,-0.128907 V 14.810537 9.1894436 8.7558498 c 0,-0.043326 0.00302,-0.086801 0.00781,-0.1289062 0.00479,-0.042106 0.012126,-0.084314 0.021484,-0.125 0.00538,-0.023387 0.012702,-0.045493 0.019531,-0.068359 0.00505,-0.016914 0.00785,-0.03417 0.013672,-0.050781 0.013698,-0.039069 0.031017,-0.076028 0.048828,-0.1132812 0.017811,-0.037253 0.036896,-0.074136 0.058594,-0.109375 0.021698,-0.035239 0.044956,-0.070489 0.070312,-0.1035156 C 6.5565747,7.9905778 6.6137392,7.9290532 6.6777348,7.873038 6.7417298,7.817023 6.813208,7.7670379 6.8886723,7.7226474 c 0.075464,-0.044391 0.1551136,-0.082101 0.2402343,-0.1132813 0.085121,-0.03118 0.1746129,-0.055883 0.2675782,-0.072266 0.092965,-0.016383 0.1900648,-0.025391 0.2890625,-0.025391 z M 1.5195314,9.1894436 H 5.5449222 V 14.810537 H 1.5195314 c -0.046233,0 -0.091538,-0.0051 -0.1347656,-0.01367 -0.043228,-0.0086 -0.083616,-0.0208 -0.1230469,-0.03711 -0.03943,-0.01631 -0.078441,-0.03531 -0.1132813,-0.05859 -0.03484,-0.02328 -0.066246,-0.05062 -0.095703,-0.08008 -0.029457,-0.02946 -0.0567963,-0.06086 -0.0800781,-0.0957 C 0.9493746,14.490547 0.9303766,14.451537 0.9140627,14.412106 0.8977489,14.372676 0.8855065,14.332286 0.8769533,14.289059 0.8684003,14.245829 0.8632814,14.200529 0.8632814,14.154293 V 9.8456936 c 0,-0.046233 0.005119,-0.091538 0.0136719,-0.1347655 0.008553,-0.043228 0.0207955,-0.083616 0.0371094,-0.123047 C 0.9303765,9.5484511 0.9493746,9.5094401 0.9726565,9.4746 0.9959384,9.43976 1.0232774,9.408354 1.0527346,9.378897 1.0821916,9.34944 1.1135976,9.322101 1.1484376,9.298819 c 0.03484,-0.023282 0.073851,-0.04228 0.1132813,-0.058594 0.03943,-0.016314 0.079819,-0.028556 0.1230469,-0.037109 0.043228,-0.00855 0.088532,-0.013672 0.1347656,-0.013672 z m 16.9355476,0 h 4.025391 c 0.04623,0 0.09154,0.00512 0.134765,0.013672 0.04323,0.00855 0.08362,0.020796 0.123047,0.037109 0.03943,0.016314 0.07844,0.035312 0.113281,0.058594 0.03484,0.023282 0.06625,0.050621 0.0957,0.080078 0.02946,0.029457 0.0568,0.060863 0.08008,0.095703 0.02328,0.03484 0.04228,0.073851 0.05859,0.1132812 0.01631,0.03943 0.02856,0.079819 0.03711,0.1230469 0.0086,0.043228 0.01367,0.088533 0.01367,0.1347656 v 4.3085937 c 0,0.04623 -0.0051,0.09154 -0.01367,0.134766 -0.0086,0.04323 -0.0208,0.08362 -0.03711,0.123047 -0.01631,0.03943 -0.03531,0.07844 -0.05859,0.113281 -0.02328,0.03484 -0.05062,0.06625 -0.08008,0.0957 -0.02946,0.02946 -0.06086,0.0568 -0.0957,0.08008 -0.03484,0.02328 -0.07385,0.04228 -0.113281,0.05859 -0.03943,0.01631 -0.07982,0.02856 -0.123047,0.03711 -0.04323,0.0086 -0.08853,0.01367 -0.134765,0.01367 h -4.025391 z" />
  </g>
</svg>
